HIERARCHY
ROOT hip
{
  OFFSET 0 0 0
  CHANNELS 6 Xposition Yposition Zposition Zrotation Yrotation Xrotation
  JOINT abdomen
  {
    OFFSET 0 20.6881 -0.73152
    CHANNELS 3 Zrotation Xrotation Yrotation
    JOINT chest
    {
      OFFSET 0 11.7043 -0.48768
      CHANNELS 3 Zrotation Xrotation Yrotation
      JOINT neck
      {
        OFFSET 0 22.1894 -2.19456
        CHANNELS 3 Zrotation Xrotation Yrotation
        JOINT head
        {
          OFFSET -0.24384 7.07133 1.2192
          CHANNELS 3 Zrotation Xrotation Yrotation
          JOINT leftEye
          {
            OFFSET 4.14528 8.04674 8.04672
            CHANNELS 3 Zrotation Xrotation Yrotation
            End Site
            {
              OFFSET 1 0 0
            }
          }
          JOINT rightEye
          {
            OFFSET -3.6576 8.04674 8.04672
            CHANNELS 3 Zrotation Xrotation Yrotation
            End Site
            {
              OFFSET 1 0 0
            }
          }
        }
      }
      JOINT rCollar
      {
        OFFSET -2.68224 19.2634 -4.8768
        CHANNELS 3 Zrotation Xrotation Yrotation
        JOINT rShldr
        {
          OFFSET -8.77824 -1.95073 1.46304
          CHANNELS 3 Zrotation Xrotation Yrotation
          JOINT rForeArm
          {
            OFFSET -28.1742 -1.7115 0.48768
            CHANNELS 3 Zrotation Xrotation Yrotation
            JOINT rHand
            {
              OFFSET -22.5879 0.773209 7.07136
              CHANNELS 3 Zrotation Xrotation Yrotation
              JOINT rThumb1
              {
                OFFSET -1.2192 -0.487915 3.41376
                CHANNELS 3 Zrotation Xrotation Yrotation
                JOINT rThumb2
                {
                  OFFSET -3.37035 -0.52449 3.41376
                  CHANNELS 3 Zrotation Xrotation Yrotation
                  End Site
                  {
                    OFFSET -1.78271 -1.18214 1.43049
                  }
                }
              }
              JOINT rIndex1
              {
                OFFSET -7.75947 0.938293 5.60832
                CHANNELS 3 Zrotation Xrotation Yrotation
                JOINT rIndex2
                {
                  OFFSET -2.54057 -0.884171 1.56538
                  CHANNELS 3 Zrotation Xrotation Yrotation
                  End Site
                  {
                    OFFSET -1.62519 -0.234802 1.16502
                  }
                }
              }
              JOINT rMid1
              {
                OFFSET -8.24714 1.18213 3.41376
                CHANNELS 3 Zrotation Xrotation Yrotation
                JOINT rMid2
                {
                  OFFSET -3.10165 -0.590103 1.0647
                  CHANNELS 3 Zrotation Xrotation Yrotation
                  End Site
                  {
                    OFFSET -2.48547 -0.328903 0.83742
                  }
                }
              }
              JOINT rRing1
              {
                OFFSET -8.82822 0.546677 1.51678
                CHANNELS 3 Zrotation Xrotation Yrotation
                JOINT rRing2
                {
                  OFFSET -2.60934 -0.819778 -0.0198488
                  CHANNELS 3 Zrotation Xrotation Yrotation
                  End Site
                  {
                    OFFSET -2.33842 -0.294052 0.168128
                  }
                }
              }
              JOINT rPinky1
              {
                OFFSET -8.27202 -0.0477905 -0.4584
                CHANNELS 3 Zrotation Xrotation Yrotation
                JOINT rPinky2
                {
                  OFFSET -1.82734 -0.647385 -0.700984
                  CHANNELS 3 Zrotation Xrotation Yrotation
                  End Site
                  {
                    OFFSET -1.69225 -0.51767 -0.607171
                  }
                }
              }
            }
          }
        }
      }
      JOINT lCollar
      {
        OFFSET 2.68224 19.2634 -4.8768
        CHANNELS 3 Zrotation Xrotation Yrotation
        JOINT lShldr
        {
          OFFSET 8.77824 -1.95073 1.46304
          CHANNELS 3 Zrotation Xrotation Yrotation
          JOINT lForeArm
          {
            OFFSET 28.1742 -1.7115 0.48768
            CHANNELS 3 Zrotation Xrotation Yrotation
            JOINT lHand
            {
              OFFSET 22.5879 0.773209 7.07136
              CHANNELS 3 Zrotation Xrotation Yrotation
              JOINT lThumb1
              {
                OFFSET 1.2192 -0.487915 3.41376
                CHANNELS 3 Zrotation Xrotation Yrotation
                JOINT lThumb2
                {
                  OFFSET 3.37035 -0.52449 3.41376
                  CHANNELS 3 Zrotation Xrotation Yrotation
                  End Site
                  {
                    OFFSET 1.78271 -1.18214 1.43049
                  }
                }
              }
              JOINT lIndex1
              {
                OFFSET 7.75947 0.938293 5.60832
                CHANNELS 3 Zrotation Xrotation Yrotation
                JOINT lIndex2
                {
                  OFFSET 2.54057 -0.884171 1.56538
                  CHANNELS 3 Zrotation Xrotation Yrotation
                  End Site
                  {
                    OFFSET 1.62519 -0.234802 1.16502
                  }
                }
              }
              JOINT lMid1
              {
                OFFSET 8.24714 1.18213 3.41376
                CHANNELS 3 Zrotation Xrotation Yrotation
                JOINT lMid2
                {
                  OFFSET 3.10165 -0.590103 1.0647
                  CHANNELS 3 Zrotation Xrotation Yrotation
                  End Site
                  {
                    OFFSET 2.48547 -0.328903 0.83742
                  }
                }
              }
              JOINT lRing1
              {
                OFFSET 8.82822 0.546677 1.51678
                CHANNELS 3 Zrotation Xrotation Yrotation
                JOINT lRing2
                {
                  OFFSET 2.60934 -0.819778 -0.0198488
                  CHANNELS 3 Zrotation Xrotation Yrotation
                  End Site
                  {
                    OFFSET 2.33842 -0.294052 0.168128
                  }
                }
              }
              JOINT lPinky1
              {
                OFFSET 8.27202 -0.0477905 -0.4584
                CHANNELS 3 Zrotation Xrotation Yrotation
                JOINT lPinky2
                {
                  OFFSET 1.82734 -0.647385 -0.700984
                  CHANNELS 3 Zrotation Xrotation Yrotation
                  End Site
                  {
                    OFFSET 1.69225 -0.51767 -0.607171
                  }
                }
              }
            }
          }
        }
      }
    }
  }
  JOINT rButtock
  {
    OFFSET -8.77824 4.35084 1.2192
    CHANNELS 3 Zrotation Xrotation Yrotation
    JOINT rThigh
    {
      OFFSET 0 -1.70687 -2.19456
      CHANNELS 3 Zrotation Xrotation Yrotation
      JOINT rShin
      {
        OFFSET 0 -36.8199 0.73152
        CHANNELS 3 Zrotation Xrotation Yrotation
        JOINT rFoot
        {
          OFFSET 0.73152 -45.1104 -5.12064
          CHANNELS 3 Zrotation Xrotation Yrotation
          End Site
          {
            OFFSET -1.1221 -3.69964 12.103
          }
        }
      }
    }
  }
  JOINT lButtock
  {
    OFFSET 8.77824 4.35084 1.2192
    CHANNELS 3 Zrotation Xrotation Yrotation
    JOINT lThigh
    {
      OFFSET 0 -1.70687 -2.19456
      CHANNELS 3 Zrotation Xrotation Yrotation
      JOINT lShin
      {
        OFFSET 0 -36.8199 0.73152
        CHANNELS 3 Zrotation Xrotation Yrotation
        JOINT lFoot
        {
          OFFSET -0.73152 -45.1104 -5.12064
          CHANNELS 3 Zrotation Xrotation Yrotation
          End Site
          {
            OFFSET 1.1221 -3.69964 12.103
          }
        }
      }
    }
  }
}
MOTION
Frames:	7
Frame Time:	0.00833333
-17.7035 56.0216 -3.80928 -68.8348 -87.7275 87.3565 7.00998 12.0552 -0.511965 4.44551 -19.9514 0.850091 -3.64949 -1.02091 1.81133 -23.4292 1.99382 3.38983 -0.0 0.0 0.0 -0.0 0.0 0.0 -5.39325e-14 3.94866e-13 -3.61986e-14 30.661 42.6645 8.25245 -15.1919 -7.97282 27.9554 -6.14414 -55.3057 -11.7057 -1.1266e-09 -8.43472e-10 3.17103e-10 -1.95472e-09 -1.36878e-09 5.01651e-10 -1.12659e-09 -8.43456e-10 3.17076e-10 7.73091 5.47488 0.417314 -1.1266e-09 -8.43473e-10 3.17103e-10 2.90554 0.965183 0.102902 -1.1266e-09 -8.43473e-10 3.17106e-10 10.2786 0.731801 0.0259123 -1.12661e-09 -8.43468e-10 3.17116e-10 2.22167 -0.733487 -0.20892 -5.39999e-14 3.9486e-13 -3.63112e-14 -58.063 -15.6236 -5.03047 12.6622 -5.92272 -22.9015 0.574806 -21.0875 3.10548 2.18273e-09 1.57822e-09 5.66863e-11 3.76882e-09 2.8165e-09 1.26175e-10 2.18272e-09 1.57821e-09 5.6691e-11 -7.73091 5.47488 -0.417314 2.18273e-09 1.57821e-09 5.66763e-11 -2.90554 0.965183 -0.102902 2.18272e-09 1.57822e-09 5.66811e-11 -10.2786 0.731801 -0.0259123 2.18273e-09 1.57822e-09 5.66717e-11 -2.22167 -0.733487 0.20892 -2.03217e-16 0.0 -3.88251e-19 74.215 -67.6663 65.7441 -19.62 86.9011 19.7883 0.81638 -26.8939 2.27802 2.03217e-16 0.0 3.88251e-19 -8.01714 -10.3136 -8.02266 0.930938 65.8579 -3.62364 -6.0608 4.44549 -20.443
-17.9295 55.3154 -3.6395 -62.3082 -87.6248 80.6089 6.91481 12.555 -0.517159 4.54134 -20.0213 0.886065 -3.82121 -1.07197 1.80002 -23.4703 2.18863 3.44104 -0.0 0.0 0.0 -0.0 0.0 0.0 -3.49522e-14 7.60227e-13 -7.81224e-14 31.8826 40.0946 4.29956 -14.3979 -7.28007 26.3581 -5.5552 -53.5738 -10.9786 -1.45845e-09 -7.87314e-10 4.04923e-10 -2.53143e-09 -1.20252e-09 6.38883e-10 -1.45844e-09 -7.87297e-10 4.04897e-10 7.73091 5.47488 0.417314 -1.45845e-09 -7.87316e-10 4.04926e-10 2.90554 0.965183 0.102902 -1.45845e-09 -7.87314e-10 4.04928e-10 10.2786 0.731801 0.0259123 -1.45846e-09 -7.87312e-10 4.04939e-10 2.22167 -0.733487 -0.20892 -3.50223e-14 7.60227e-13 -7.82715e-14 -56.3028 -19.3746 -3.11273 12.7218 -5.96791 -23.016 0.525777 -20.1581 2.95733 3.14497e-09 1.923e-09 -8.43992e-11 5.43511e-09 3.45366e-09 -1.04712e-10 3.14496e-09 1.92298e-09 -8.43928e-11 -7.73091 5.47488 -0.417314 3.14497e-09 1.92299e-09 -8.44087e-11 -2.90554 0.965183 -0.102902 3.14497e-09 1.923e-09 -8.44024e-11 -10.2786 0.731801 -0.0259123 3.14497e-09 1.923e-09 -8.44119e-11 -2.22167 -0.733487 0.20892 -2.03217e-16 0.0 -3.88251e-19 75.5485 -67.9341 66.9566 -36.3318 88.1979 36.4968 0.881792 -27.2299 2.42267 2.03217e-16 0.0 3.88251e-19 -8.21446 -10.2789 -7.90033 1.00116 66.9314 -3.75234 -6.04595 4.45619 -20.4546
-18.2006 54.6206 -3.43275 -53.324 -87.6814 71.4498 6.68733 12.9301 -0.536663 4.62288 -20.1554 0.912083 -3.9742 -1.06885 1.77785 -23.634 2.45477 3.46349 -0.0 0.0 0.0 -0.0 0.0 0.0 -2.89882e-14 8.72322e-13 -8.82666e-14 32.7698 37.0954 0.495576 -13.7528 -6.73638 25.1059 -5.12874 -52.1892 -10.4408 -1.57781e-09 -9.43877e-11 1.66501e-10 -2.72878e-09 2.42641e-11 2.23073e-10 -1.5778e-09 -9.43734e-11 1.66481e-10 7.73091 5.47488 0.417314 -1.57781e-09 -9.43842e-11 1.66506e-10 2.90554 0.965183 0.102902 -1.57781e-09 -9.43882e-11 1.66507e-10 10.2786 0.731801 0.0259123 -1.57782e-09 -9.43866e-11 1.66517e-10 2.22167 -0.733487 -0.20892 -2.90737e-14 8.72328e-13 -8.84588e-14 -54.1823 -22.3031 -1.14899 12.8136 -6.03645 -23.1949 0.532841 -20.2113 2.96735 3.40781e-09 2.4173e-09 -1.70805e-10 5.89254e-09 4.34074e-09 -2.49193e-10 3.40781e-09 2.41728e-09 -1.70797e-10 -7.73091 5.47488 -0.417314 3.40781e-09 2.41729e-09 -1.70813e-10 -2.90554 0.965183 -0.102902 3.40781e-09 2.4173e-09 -1.70808e-10 -10.2786 0.731801 -0.0259123 3.40781e-09 2.4173e-09 -1.70817e-10 -2.22167 -0.733487 0.20892 -2.03217e-16 0.0 -3.88251e-19 76.7966 -68.3213 68.156 -86.5526 88.9056 86.7198 0.731428 -27.8087 2.00735 2.03217e-16 0.0 3.88251e-19 -8.50347 -10.1929 -7.79236 1.07885 67.9605 -3.87968 -6.11228 4.19448 -20.5313
-18.4838 53.952 -3.20514 -43.7573 -87.7629 61.739 6.36356 13.2046 -0.566663 4.69443 -20.328 0.930043 -4.11524 -1.04616 1.74888 -23.8701 2.78007 3.47194 -0.0 0.0 0.0 -0.0 0.0 0.0 -3.01114e-14 8.50935e-13 -8.06196e-14 33.2609 33.7162 -3.13152 -13.253 -6.34734 24.1085 -4.79543 -51.0362 -10.0147 -1.58049e-09 1.02843e-09 -2.87611e-10 -2.71627e-09 1.97243e-09 -5.59451e-10 -1.58049e-09 1.02844e-09 -2.87624e-10 7.73091 5.47488 0.417314 -1.58049e-09 1.02844e-09 -2.87605e-10 2.90554 0.965183 0.102902 -1.58049e-09 1.02843e-09 -2.87605e-10 10.2786 0.731801 0.0259123 -1.5805e-09 1.02843e-09 -2.87597e-10 2.22167 -0.733487 -0.20892 -3.02218e-14 8.50946e-13 -8.0865e-14 -51.8205 -24.6267 0.867419 12.9498 -6.13838 -23.4624 0.578607 -20.9835 3.09204 3.25295e-09 3.02179e-09 -2.29323e-10 5.62816e-09 5.41479e-09 -3.50407e-10 3.25295e-09 3.02177e-09 -2.29314e-10 -7.73091 5.47488 -0.417314 3.25295e-09 3.02179e-09 -2.29328e-10 -2.90554 0.965183 -0.102902 3.25295e-09 3.02179e-09 -2.29326e-10 -10.2786 0.731801 -0.0259123 3.25295e-09 3.02179e-09 -2.29336e-10 -2.22167 -0.733487 0.20892 -2.03217e-16 0.0 -3.88251e-19 77.9462 -68.7759 69.3171 -138.347 88.3205 138.523 0.418886 -28.551 1.21439 2.03217e-16 0.0 3.88251e-19 -8.85955 -10.0485 -7.67493 1.15722 68.9242 -3.99895 -6.21878 3.75594 -20.5877
-18.7717 53.3268 -2.96941 -34.8694 -87.7618 52.698 5.97946 13.4272 -0.624457 4.76848 -20.4994 0.937008 -4.22054 -1.01426 1.73133 -24.1528 3.13368 3.49614 -0.0 0.0 0.0 -0.0 0.0 0.0 -3.40435e-14 8.03102e-13 -6.95125e-14 33.2521 30.2979 -6.41695 -12.8198 -6.03291 23.2246 -4.49044 -49.928 -9.62101 -1.58371e-09 2.29271e-09 -7.43405e-10 -2.7049e-09 4.16109e-09 -1.34378e-09 -1.5837e-09 2.29271e-09 -7.4341e-10 7.73091 5.47488 0.417314 -1.58371e-09 2.29273e-09 -7.43399e-10 2.90554 0.965183 0.102902 -1.5837e-09 2.29271e-09 -7.43398e-10 10.2786 0.731801 0.0259123 -1.58371e-09 2.29271e-09 -7.43394e-10 2.22167 -0.733487 -0.20892 -3.41769e-14 8.03119e-13 -6.98002e-14 -49.3018 -26.6134 2.8614 13.0735 -6.23106 -23.7072 0.620125 -21.6849 3.2058 2.9821e-09 4.54736e-09 -2.33322e-10 5.16225e-09 8.07184e-09 -3.59719e-10 2.9821e-09 4.54735e-09 -2.33311e-10 -7.73091 5.47488 -0.417314 2.9821e-09 4.54737e-09 -2.33323e-10 -2.90554 0.965183 -0.102902 2.9821e-09 4.54736e-09 -2.33325e-10 -10.2786 0.731801 -0.0259123 2.9821e-09 4.54736e-09 -2.33334e-10 -2.22167 -0.733487 0.20892 -2.03217e-16 0.0 -3.88251e-19 78.9354 -69.2046 70.3142 -155.382 87.2668 155.569 0.0329172 -29.3158 0.293257 2.03217e-16 0.0 3.88251e-19 -9.17809 -9.84168 -7.54111 1.22743 69.7447 -4.10917 -6.29303 3.3925 -20.7222
-19.1081 52.7741 -2.77487 -28.4764 -87.6593 46.1175 5.57131 13.6468 -0.72743 4.85741 -20.6298 0.930011 -4.26636 -0.983544 1.74346 -24.4571 3.48472 3.56588 -0.0 0.0 0.0 -0.0 0.0 0.0 -3.65063e-14 8.35861e-13 -6.92765e-14 32.7709 27.1905 -9.26147 -12.3632 -5.70659 22.315 -4.16736 -48.6762 -9.19762 -1.70467e-09 3.41004e-09 -9.86872e-10 -2.90566e-09 6.10933e-09 -1.76502e-09 -1.70467e-09 3.41004e-09 -9.86872e-10 7.73091 5.47488 0.417314 -1.70468e-09 3.41006e-09 -9.86866e-10 2.90554 0.965183 0.102902 -1.70467e-09 3.41004e-09 -9.86866e-10 10.2786 0.731801 0.0259123 -1.70468e-09 3.41004e-09 -9.86862e-10 2.22167 -0.733487 -0.20892 -3.66489e-14 8.3588e-13 -6.95746e-14 -46.6812 -28.5368 4.76523 13.129 -6.27266 -23.8176 0.604217 -21.526 3.17778 2.89699e-09 7.8049e-09 -1.56168e-10 5.01509e-09 1.37079e-08 -2.28495e-10 2.89698e-09 7.80489e-09 -1.56159e-10 -7.73091 5.47488 -0.417314 2.89699e-09 7.80491e-09 -1.56168e-10 -2.90554 0.965183 -0.102902 2.89698e-09 7.8049e-09 -1.56172e-10 -10.2786 0.731801 -0.0259123 2.89699e-09 7.8049e-09 -1.56181e-10 -2.22167 -0.733487 0.20892 -2.03217e-16 0.0 -3.88251e-19 79.6729 -69.5171 70.9899 -162.151 86.2199 162.349 -0.315001 -29.9674 -0.495947 2.03217e-16 0.0 3.88251e-19 -9.3547 -9.56835 -7.38406 1.27901 70.3443 -4.20754 -6.26219 3.3558 -21.0316
-19.4435 52.2841 -2.6685 -25.523 -87.4953 42.8938 5.15101 13.8733 -0.901346 4.98052 -20.7077 0.904835 -4.29614 -0.965273 1.80655 -24.6997 3.85006 3.73864 -0.0 0.0 0.0 -0.0 0.0 0.0 -3.60269e-14 1.07252e-12 -9.15842e-14 31.9283 24.538 -11.6893 -11.8686 -5.35571 21.3589 -3.85456 -47.3371 -8.77417 -2.11341e-09 4.55448e-09 -9.00641e-10 -3.61715e-09 8.13893e-09 -1.62523e-09 -2.1134e-09 4.55448e-09 -9.00642e-10 7.73091 5.47488 0.417314 -2.11341e-09 4.5545e-09 -9.00637e-10 2.90554 0.965183 0.102902 -2.1134e-09 4.55448e-09 -9.00637e-10 10.2786 0.731801 0.0259123 -2.11341e-09 4.55448e-09 -9.00634e-10 2.22167 -0.733487 -0.20892 -3.61581e-14 1.07254e-12 -9.18401e-14 -43.9829 -30.4358 6.56383 13.0777 -6.23415 -23.7156 0.518651 -20.1758 2.95707 3.17912e-09 1.46943e-08 5.47667e-11 5.49873e-09 2.56018e-08 1.34921e-10 3.17911e-09 1.46942e-08 5.47728e-11 -7.73091 5.47488 -0.417314 3.17912e-09 1.46943e-08 5.47656e-11 -2.90554 0.965183 -0.102902 3.17911e-09 1.46943e-08 5.47629e-11 -10.2786 0.731801 -0.0259123 3.17912e-09 1.46943e-08 5.47544e-11 -2.22167 -0.733487 0.20892 -2.03217e-16 0.0 -3.88251e-19 80.0063 -69.6784 71.1541 -165.644 85.2576 165.856 -0.56733 -30.5032 -1.0481 2.03217e-16 0.0 3.88251e-19 -9.31559 -9.19187 -7.16054 1.29758 70.6549 -4.2835 -6.06902 3.80027 -21.6118
